<?xml version="1.0" standalone="no"?><!DOCTYPE svg PUBLIC "-//W3C//DTD SVG 1.1//EN" "http://www.w3.org/Graphics/SVG/1.1/DTD/svg11.dtd"><svg t="1614221029221" class="icon" viewBox="0 0 1024 1024" version="1.1" xmlns="http://www.w3.org/2000/svg" p-id="713" xmlns:xlink="http://www.w3.org/1999/xlink" width="200" height="200"><defs><style type="text/css"></style></defs><path d="M447.488 808.96h29.184s0.512-128.512 0-138.24c-0.512-9.728 3.584-20.48 8.192-25.088 4.096-5.12 321.536-374.272 321.536-374.272s-87.552 447.488-88.576 453.12c-1.024 4.608-4.096 6.656-8.192 5.12-5.12-1.536-187.904-58.88-187.904-58.88l-9.216 28.16s173.568 54.784 190.976 59.904c18.944 5.632 38.912-6.656 43.008-28.16 3.072-17.92 93.696-479.232 95.232-487.424 1.536-8.192 5.12-19.968-9.216-26.624-10.24-5.12-23.04 5.632-23.04 5.632l-4.096-7.68s-587.264 313.856-608.256 325.12-19.968 35.328-2.56 40.96c17.408 5.632 195.072 63.488 195.072 63.488l9.216-27.648-175.616-56.32 548.352-293.376s-293.376 341.504-305.152 355.328c-12.288 13.824-18.944 28.16-18.944 46.592v140.288z" fill="#d81e06" p-id="714"></path><path d="M484.352 816.64h-44.032v-148.48c0-18.944 6.656-35.328 20.992-51.712 9.728-11.264 205.824-239.616 278.528-324.096l-496.128 265.728 165.376 53.248-13.824 42.496-202.24-65.536c-10.24-3.584-17.408-12.288-18.432-22.528-1.024-12.8 6.144-25.088 19.456-32.256 20.48-11.264 602.624-322.048 608.256-325.12l6.656-3.584 3.584 7.168c6.144-3.072 14.848-5.632 23.04-1.536 17.92 8.704 15.36 24.064 13.824 32.768l-0.512 2.048c-0.512 4.608-24.064 123.392-56.832 290.816-19.968 101.376-36.864 188.928-38.4 196.608-2.56 12.8-9.728 23.552-19.968 29.696-9.728 6.144-21.504 7.68-32.768 4.096-17.408-5.12-184.32-57.344-190.976-59.904l-7.68-2.56 14.336-43.008 7.168 2.048c7.168 2.048 167.936 52.224 186.368 58.368 4.096-21.504 64-327.68 82.944-423.424-68.608 79.872-299.008 348.16-302.592 352.256-2.56 3.072-6.656 11.776-6.144 19.968 0.512 9.728 0 133.12 0 138.24v8.192z m-29.184-15.36h13.824c0-27.648 0.512-121.856 0-130.048-0.512-11.776 4.608-24.576 9.728-30.72 4.096-5.12 321.536-374.272 321.536-374.272l18.944-22.016-5.632 28.672s-87.552 447.488-88.576 453.12c-1.024 5.632-4.096 8.704-6.656 10.24-3.072 2.048-7.168 2.048-11.264 1.024-4.096-1.536-146.944-45.568-180.736-56.32l-4.608 13.824c33.28 10.24 168.448 52.736 183.296 57.344 6.656 2.048 13.824 1.024 19.968-2.56 6.656-4.096 11.264-11.264 12.8-19.456 1.536-7.68 18.432-95.232 38.4-196.608 25.088-127.488 55.808-285.696 56.832-290.304l0.512-2.56c1.536-9.216 1.536-12.8-5.12-15.872-4.096-2.048-11.776 2.048-14.336 4.608l-7.168 6.144-4.608-9.216c-66.048 35.328-582.144 310.784-601.6 321.024-9.216 5.12-12.288 12.288-11.776 17.408 0.512 4.608 3.072 7.68 7.68 9.216l187.392 60.928 4.096-13.312-185.344-59.392 600.576-321.536-26.624 31.232c-3.072 3.584-293.376 341.504-305.152 355.328-11.776 13.312-16.896 26.624-16.896 41.472l0.512 132.608z" fill="#d81e06" p-id="715"></path></svg>